<svg width="218" height="50" fill="none" xmlns="http://www.w3.org/2000/svg"><g clip-path="url(#clip0_928_2489)"><path d="M20.678 20.657L0 0v38.792h5.635V13.587l11.058 11.044 3.985-3.974zm-4.707 10.729a10.806 10.806 0 0 0-3.2 7.712c0 2.91 1.14 5.654 3.2 7.707A10.843 10.843 0 0 0 23.693 50c2.92 0 5.661-1.137 7.722-3.19a10.824 10.824 0 0 0 3.2-7.712c0-2.917-1.14-5.66-3.2-7.712l-.722-.722-3.985 3.98.722.716a5.276 5.276 0 0 1 0 7.47 5.302 5.302 0 0 1-7.48 0 5.255 5.255 0 0 1-1.549-3.732c0-1.411.553-2.738 1.55-3.733l21.806-21.773v25.206h5.634V0l-31.42 31.386zm157.007 7.438V17.25h5.354l.081 2.822c.73-.954 1.703-1.736 2.92-2.345a8.41 8.41 0 0 1 3.813-.915c4.921 0 7.381 2.862 7.381 8.585v13.427h-5.516v-13.03c0-2.993-1.284-4.437-3.853-4.331-1.325 0-2.433.397-3.326 1.192-.865.795-1.297 1.775-1.297 2.941v13.228h-5.557zm0-25.181v-4.82h5.354v4.82h-5.354z" fill="#F89500"/><path d="M61.609 38.824V17.309h5.3l.08 3.001a8.535 8.535 0 0 1 2.81-2.441c1.124-.64 2.301-.96 3.533-.96 1.525 0 2.797.333 3.814 1 1.017.64 1.846 1.668 2.489 3.082a8.338 8.338 0 0 1 3.131-2.962c1.338-.747 2.717-1.12 4.135-1.12 4.845 0 7.267 2.908 7.267 8.725v13.19h-5.5v-12.79c0-2.935-1.205-4.403-3.614-4.403-1.284 0-2.355.4-3.211 1.201-.83.8-1.245 1.801-1.245 3.002v12.99h-5.5v-12.87c0-1.388-.308-2.455-.923-3.202-.616-.747-1.5-1.12-2.65-1.12-1.258 0-2.315.4-3.172 1.2-.83.8-1.244 1.774-1.244 2.922v13.07h-5.5zm47.827.018c-2.168 0-4.095-.467-5.781-1.401a10.567 10.567 0 0 1-3.974-3.923c-.964-1.654-1.446-3.548-1.446-5.683 0-2.108.482-3.99 1.446-5.643a10.276 10.276 0 0 1 3.974-3.883c1.686-.96 3.613-1.44 5.781-1.44 2.115 0 4.015.48 5.701 1.44a10.281 10.281 0 0 1 3.975 3.883c.963 1.654 1.445 3.535 1.445 5.643 0 2.135-.482 4.03-1.445 5.683a10.573 10.573 0 0 1-3.975 3.923c-1.686.934-3.586 1.4-5.701 1.4zm0-4.763c1.071 0 2.034-.267 2.891-.8a5.514 5.514 0 0 0 1.967-2.242c.482-.934.723-2.001.723-3.202 0-1.2-.241-2.268-.723-3.202a5.241 5.241 0 0 0-1.967-2.201c-.857-.534-1.82-.8-2.891-.8-1.097 0-2.074.266-2.93.8a5.515 5.515 0 0 0-2.008 2.201c-.482.934-.722 2.001-.722 3.202 0 1.2.24 2.268.722 3.202a5.81 5.81 0 0 0 2.008 2.241c.856.534 1.833.8 2.93.8zm17.58 4.745V22.232h-4.015v-4.923h4.015v-5.404h5.46v5.404h4.456v4.923h-4.456v16.592h-5.46zm23.435.018c-2.275 0-4.269-.467-5.982-1.401-1.713-.934-3.052-2.215-4.015-3.843-.937-1.627-1.405-3.495-1.405-5.603 0-2.188.455-4.11 1.365-5.763.937-1.681 2.208-3.002 3.814-3.963 1.632-.96 3.506-1.44 5.62-1.44 1.901 0 3.6.466 5.099 1.4a9.288 9.288 0 0 1 3.533 3.722c.856 1.575 1.258 3.376 1.204 5.404l-.04 1.72h-15.256c.295 1.522 1.017 2.722 2.168 3.603 1.178.88 2.663 1.32 4.457 1.32.963 0 1.833-.146 2.609-.44.803-.293 1.66-.813 2.57-1.56l2.649 3.682a12.653 12.653 0 0 1-3.974 2.361c-1.472.534-2.944.8-4.416.8zm-.563-17.29c-3.024 0-4.844 1.36-5.459 4.082h10.036v-.16c-.08-1.148-.562-2.082-1.445-2.802-.857-.747-1.9-1.12-3.132-1.12zm14.13 17.29V8.823h5.46v30.019h-5.46zm42.741 8.805c-1.633 0-3.266-.253-4.898-.76-1.606-.48-2.918-1.108-3.935-1.882l1.927-3.962c.83.614 1.807 1.094 2.931 1.44 1.151.348 2.315.521 3.493.521 4.149 0 6.223-1.948 6.223-5.843V35.52c-.669.853-1.606 1.574-2.81 2.161a8.588 8.588 0 0 1-3.734.84c-1.954 0-3.707-.453-5.259-1.36-1.526-.934-2.73-2.202-3.614-3.803-.883-1.627-1.325-3.482-1.325-5.563 0-2.108.429-3.99 1.285-5.643.883-1.655 2.088-2.949 3.613-3.883 1.526-.934 3.239-1.4 5.139-1.4 1.419 0 2.73.293 3.935.88 1.231.56 2.208 1.24 2.93 2.041l.081-2.481H218V36.88c0 3.443-1.004 6.097-3.011 7.965-1.981 1.868-4.724 2.802-8.23 2.802zm.16-13.608c1.74 0 3.132-.574 4.176-1.721 1.07-1.148 1.606-2.642 1.606-4.483 0-1.868-.536-3.375-1.606-4.523-1.071-1.174-2.463-1.76-4.176-1.76-1.686 0-3.064.586-4.135 1.76-1.044 1.174-1.566 2.682-1.566 4.523 0 1.841.522 3.335 1.566 4.483 1.071 1.147 2.449 1.72 4.135 1.72z" fill="#131120"/></g><defs><clipPath id="clip0_928_2489"><path fill="#fff" d="M0 0H218V50H0z"/></clipPath></defs></svg>