<svg width="120" height="127" viewBox="0 0 120 127" fill="none" xmlns="http://www.w3.org/2000/svg">
<path d="M52.359 52.4687L0 0V98.5326H14.2676V34.5112L42.2689 62.564L52.359 52.4687Z" fill="#F89500"/>
<path d="M40.4404 79.7193C35.2085 84.9475 32.339 91.9005 32.339 99.3082C32.339 106.702 35.2219 113.669 40.4404 118.884C45.6723 124.125 52.5993 127 59.9933 127C67.3874 127 74.3277 124.112 79.5462 118.897C84.7781 113.656 87.6476 106.702 87.6476 99.3082C87.6476 91.9005 84.7648 84.9341 79.5462 79.7193L77.7177 77.8874L67.6276 87.9961L69.4561 89.8146C74.688 95.0561 74.688 103.56 69.4561 108.788C64.2376 114.017 55.7357 114.017 50.5172 108.788C47.9947 106.261 46.5933 102.878 46.5933 99.3082C46.5933 95.7247 47.9947 92.3551 50.5172 89.828L105.732 34.5245V98.546H120V0L40.4404 79.7193Z" fill="#F89500"/>
</svg>
